<svg width="38" height="40" viewBox="0 0 38 40" fill="none" xmlns="http://www.w3.org/2000/svg">
<path d="M37.3326 0H7.33267C6.9645 0 6.666 0.298499 6.666 0.666665V10.6666H7.99933V1.33333H36.6659V37.9999C36.6724 38.3505 36.4019 38.6442 36.0519 38.6666C35.9946 38.6666 35.9373 38.6619 35.8799 38.6606C35.7619 38.6573 35.6439 38.6546 35.5279 38.6426C35.5179 38.6426 35.5086 38.6426 35.4986 38.6386C33.3213 38.4006 31.6014 36.6823 31.3613 34.5053C31.3613 34.4959 31.358 34.4859 31.3566 34.4766C31.3405 34.3182 31.3325 34.1591 31.3326 33.9999V32.6666C31.3326 32.2984 31.0341 31.9999 30.666 31.9999H7.99933V20H6.666V31.9999H1.33268C0.964515 31.9999 0.666016 32.2984 0.666016 32.6666V33.9999C0.669682 37.3121 3.35384 39.9963 6.666 39.9999H36.0659C37.1478 39.9716 38.0076 39.0821 37.9993 37.9999V0.666665C37.9993 0.298499 37.7008 0 37.3326 0ZM6.666 38.6666C4.08993 38.6637 2.00226 36.576 1.99935 33.9999V33.3333H29.9993V33.9999C30.0002 34.2198 30.0129 34.4394 30.0373 34.6579C30.0433 34.7159 30.0546 34.7719 30.0626 34.8293C30.0846 34.9906 30.1113 35.1513 30.1466 35.3093C30.1586 35.3646 30.174 35.4193 30.188 35.4746C30.2286 35.6353 30.2746 35.7933 30.328 35.9493C30.3433 35.9939 30.3593 36.0379 30.376 36.0826C30.4366 36.2479 30.5053 36.4093 30.5806 36.5686C30.5966 36.6013 30.6113 36.6353 30.6273 36.6653C30.7109 36.8342 30.8026 36.9983 30.9026 37.1579C30.916 37.1793 30.928 37.2013 30.9413 37.2246C31.05 37.3948 31.1673 37.5595 31.2926 37.7179L31.314 37.7466C31.4595 37.9293 31.6153 38.1036 31.7806 38.2686C31.9242 38.4108 32.073 38.5442 32.2273 38.6686L6.666 38.6666Z" fill="#4985FF"/>
</svg>
