<svg width="26" height="7" viewBox="0 0 26 7" fill="none" xmlns="http://www.w3.org/2000/svg">
<path d="M22 6.66665C22.1768 6.66665 22.3463 6.59632 22.4713 6.47132L25.1379 3.80466C25.3982 3.54433 25.3982 3.12233 25.1379 2.86199L22.4713 0.195332C22.3463 0.0703327 22.1768 0 22 0H3.33333C1.49241 0 0 1.49241 0 3.33333C0 5.17424 1.49241 6.66665 3.33333 6.66665H22ZM21.828 1.43733L23.7239 3.33333L21.828 5.22932L21.354 3.33333L21.828 1.43733ZM5.33332 1.33333H20.48L20.1466 2.66666H6.66665V3.99999H20.1466L20.48 5.33332H5.33332V1.33333ZM1.33333 3.33333C1.33333 2.22875 2.22875 1.33333 3.33333 1.33333H3.99999V5.33332H3.33333C2.22875 5.33332 1.33333 4.43791 1.33333 3.33333Z" fill="#4985FF"/>
</svg>
