<svg width="22" height="22" viewBox="0 0 22 22" fill="none" xmlns="http://www.w3.org/2000/svg">
<path d="M1.33255 21.6666H21.3325C21.7007 21.6666 21.9992 21.3681 21.9992 20.9999V0.999994C21.9991 0.631829 21.7006 0.333413 21.3323 0.333496C21.1556 0.333496 20.9862 0.403746 20.8612 0.528663L0.861213 20.5286C0.60088 20.789 0.600964 21.2111 0.86138 21.4714C0.98638 21.5964 1.1558 21.6666 1.33255 21.6666ZM20.6658 2.60932V4.33332H19.3325V5.66665H20.6658V6.99998H19.3325V8.33331H20.6658V9.66664H19.3325V11H20.6658V12.3333H19.3325V13.6666H20.6658V15H19.3325V16.3333H20.6658V17.6666H19.3325V18.9999H20.6658V20.3333H19.3325V18.9999H17.9992V20.3333H16.6658V18.9999H15.3325V20.3333H13.9992V18.9999H12.6659V20.3333H11.3325V18.9999H9.9992V20.3333H8.66587V18.9999H7.33253V20.3333H5.9992V18.9999H4.66587V20.3333H2.94188L20.6658 2.60932Z" fill="#4985FF"/>
</svg>
